<?xml version="1.0" encoding="UTF-8" standalone="no"?>
<!-- Creator: CorelDRAW X7 -->

<svg
   xmlns:dc="http://purl.org/dc/elements/1.1/"
   xmlns:cc="http://creativecommons.org/ns#"
   xmlns:rdf="http://www.w3.org/1999/02/22-rdf-syntax-ns#"
   xmlns:svg="http://www.w3.org/2000/svg"
   xmlns="http://www.w3.org/2000/svg"
   xmlns:sodipodi="http://sodipodi.sourceforge.net/DTD/sodipodi-0.dtd"
   xmlns:inkscape="http://www.inkscape.org/namespaces/inkscape"
   xml:space="preserve"
   width="167.23903mm"
   height="62.776756mm"
   version="1.1"
   style="clip-rule:evenodd;fill-rule:evenodd;image-rendering:optimizeQuality;shape-rendering:geometricPrecision;text-rendering:geometricPrecision"
   viewBox="0 0 16723.903 6277.6756"
   id="svg2"
   inkscape:version="0.91 r13725"
   sodipodi:docname="title-white.svg"><metadata
     id="metadata20"><rdf:RDF><cc:Work
         rdf:about=""><dc:format>image/svg+xml</dc:format><dc:type
           rdf:resource="http://purl.org/dc/dcmitype/StillImage" /><dc:title></dc:title></cc:Work></rdf:RDF></metadata><sodipodi:namedview
     pagecolor="#ff5656"
     bordercolor="#000000"
     borderopacity="1"
     objecttolerance="10"
     gridtolerance="10"
     guidetolerance="10"
     inkscape:pageopacity="0"
     inkscape:pageshadow="2"
     inkscape:window-width="1440"
     inkscape:window-height="833"
     id="namedview18"
     showgrid="false"
     inkscape:zoom="0.89702958"
     inkscape:cx="206.28885"
     inkscape:cy="94.810435"
     inkscape:window-x="0"
     inkscape:window-y="0"
     inkscape:window-maximized="0"
     inkscape:current-layer="g4160"
     fit-margin-top="0"
     fit-margin-left="0"
     fit-margin-right="0"
     fit-margin-bottom="0" /><defs
     id="defs4"><style
       type="text/css"
       id="style6"><![CDATA[
    .fil1 {fill:#FEFEFE}
    .fil0 {fill:gold}
   ]]></style></defs><text
     xml:space="preserve"
     style="font-style:normal;font-weight:normal;font-size:323.37728882px;line-height:110.00000238%;font-family:sans-serif;letter-spacing:0px;word-spacing:0px;fill:#000000;fill-opacity:1;stroke:none;stroke-width:1px;stroke-linecap:butt;stroke-linejoin:miter;stroke-opacity:1"
     x="5196.771"
     y="2687.8147"
     id="text4225"
     sodipodi:linespacing="110%"><tspan
       sodipodi:role="line"
       id="tspan4227"
       x="5196.771"
       y="2687.8147" /></text>
<g
     id="g4147"
     transform="translate(-7581.0599,-11546.047)"><g
       id="g4160"><g
         transform="matrix(28.222224,0,0,28.222224,-144.35077,462.16926)"
         style="font-style:normal;font-weight:normal;font-size:11.45825005px;line-height:110.00000238%;font-family:sans-serif;letter-spacing:0px;word-spacing:0px;fill:#ffffff;fill-opacity:1;stroke:none;stroke-width:1px;stroke-linecap:butt;stroke-linejoin:miter;stroke-opacity:1"
         id="flowRoot4213"><path
           d="m 557.45312,487.04196 q -1.375,5.225 -2.95624,10.38125 -1.51251,5.15625 -3.23126,10.38125 l -7.975,0 q -1.23749,-2.8875 -2.68125,-6.875 -1.44375,-3.9875 -3.02499,-8.6625 -1.51251,-4.74375 -3.16251,-9.96875 -1.58124,-5.29375 -3.09375,-10.65625 l 10.79376,0 q 0.54999,2.475 1.16874,5.43125 0.6875,2.8875 1.375,5.98125 0.75625,3.09375 1.51251,6.25625 0.82499,3.09375 1.64999,5.98125 0.89375,-3.025 1.71875,-6.1875 0.89375,-3.1625 1.65,-6.1875 0.82501,-3.09375 1.51251,-5.9125 0.75625,-2.8875 1.30624,-5.3625 l 7.425,0 q 0.55001,2.475 1.23751,5.3625 0.6875,2.81875 1.44375,5.9125 0.75624,3.025 1.58124,6.1875 0.82501,3.1625 1.71875,6.1875 0.82501,-2.8875 1.65,-5.98125 0.82501,-3.1625 1.51251,-6.25625 0.75625,-3.09375 1.375,-5.98125 0.6875,-2.95625 1.23749,-5.43125 l 10.65625,0 q -1.51249,5.3625 -3.1625,10.65625 -1.58125,5.225 -3.16249,9.96875 -1.51251,4.675 -3.02501,8.6625 -1.44374,3.9875 -2.68125,6.875 l -7.975,0 q -1.71875,-5.225 -3.36875,-10.38125 -1.65,-5.15625 -3.025,-10.38125 z"
           style="font-style:normal;font-variant:normal;font-weight:bold;font-stretch:normal;font-size:68.75px;line-height:64.99999762%;font-family:Ubuntu;-inkscape-font-specification:'Ubuntu Bold';letter-spacing:0.64999998px;fill:#ffffff;fill-opacity:1"
           id="path4174" /><path
           d="m 587.42393,489.99821 q 0,-4.8125 1.44375,-8.3875 1.5125,-3.64375 3.91875,-6.05 2.40625,-2.40625 5.5,-3.64375 3.1625,-1.2375 6.4625,-1.2375 7.7,0 12.16875,4.74375 4.46875,4.675 4.46875,13.81875 0,0.89375 -0.0688,1.99375 -0.0688,1.03125 -0.1375,1.85625 l -23.2375,0 q 0.34375,3.1625 2.95625,5.01875 2.6125,1.85625 7.0125,1.85625 2.81875,0 5.5,-0.48125 2.75,-0.55 4.46875,-1.30625 l 1.375,8.31875 q -0.825,0.4125 -2.2,0.825 -1.375,0.4125 -3.09375,0.6875 -1.65,0.34375 -3.575,0.55 -1.925,0.20625 -3.85,0.20625 -4.88125,0 -8.525,-1.44375 -3.575,-1.44375 -5.98125,-3.91875 -2.3375,-2.54375 -3.50625,-5.98125 -1.1,-3.4375 -1.1,-7.425 z m 24.0625,-3.91875 q -0.0688,-1.30625 -0.48125,-2.54375 -0.34375,-1.2375 -1.16875,-2.2 -0.75625,-0.9625 -1.99375,-1.58125 -1.16875,-0.61875 -2.95625,-0.61875 -1.71875,0 -2.95625,0.61875 -1.2375,0.55 -2.0625,1.5125 -0.825,0.9625 -1.30625,2.26875 -0.4125,1.2375 -0.61875,2.54375 l 13.54375,0 z"
           style="font-style:normal;font-variant:normal;font-weight:bold;font-stretch:normal;font-size:68.75px;line-height:64.99999762%;font-family:Ubuntu;-inkscape-font-specification:'Ubuntu Bold';letter-spacing:0.64999998px;fill:#ffffff;fill-opacity:1"
           id="path4176" /><path
           d="m 644.51338,508.49196 q -4.46875,-0.0688 -7.2875,-0.9625 -2.75,-0.89375 -4.4,-2.475 -1.58125,-1.65 -2.2,-3.91875 -0.55,-2.3375 -0.55,-5.225 l 0,-39.80625 10.24375,-1.65 0,39.39375 q 0,1.375 0.20625,2.475 0.20625,1.1 0.75625,1.85625 0.61875,0.75625 1.71875,1.2375 1.1,0.48125 2.95625,0.61875 l -1.44375,8.45625 z"
           style="font-style:normal;font-variant:normal;font-weight:bold;font-stretch:normal;font-size:68.75px;line-height:64.99999762%;font-family:Ubuntu;-inkscape-font-specification:'Ubuntu Bold';letter-spacing:0.64999998px;fill:#ffffff;fill-opacity:1"
           id="path4178" /><path
           d="m 666.91631,508.49196 q -4.46875,-0.0688 -7.2875,-0.9625 -2.75,-0.89375 -4.4,-2.475 -1.58125,-1.65 -2.2,-3.91875 -0.55,-2.3375 -0.55,-5.225 l 0,-39.80625 10.24375,-1.65 0,39.39375 q 0,1.375 0.20625,2.475 0.20625,1.1 0.75625,1.85625 0.61875,0.75625 1.71875,1.2375 1.1,0.48125 2.95625,0.61875 l -1.44375,8.45625 z"
           style="font-style:normal;font-variant:normal;font-weight:bold;font-stretch:normal;font-size:68.75px;line-height:64.99999762%;font-family:Ubuntu;-inkscape-font-specification:'Ubuntu Bold';letter-spacing:0.64999998px;fill:#ffffff;fill-opacity:1"
           id="path4180" /><path
           d="m 533.73437,534.41071 q 0,-3.91875 1.2375,-7.35625 1.30626,-3.50625 3.71251,-6.05 2.40625,-2.6125 5.84375,-4.125 3.4375,-1.5125 7.8375,-1.5125 2.88749,0 5.29374,0.55 2.40625,0.48125 4.67501,1.44375 l -2.13126,8.18125 q -1.44375,-0.55 -3.1625,-0.9625 -1.71875,-0.4125 -3.85,-0.4125 -4.53749,0 -6.80625,2.81875 -2.19999,2.81875 -2.19999,7.425 0,4.88125 2.0625,7.5625 2.13124,2.68125 7.35624,2.68125 1.85626,0 3.98751,-0.34375 2.13124,-0.34375 3.91874,-1.1 l 1.44375,8.3875 q -1.7875,0.75625 -4.46875,1.30625 -2.68124,0.55 -5.9125,0.55 -4.94999,0 -8.525,-1.44375 -3.575,-1.5125 -5.9125,-4.05625 -2.26874,-2.54375 -3.36875,-5.98125 -1.03125,-3.50625 -1.03125,-7.5625 z"
           style="font-style:normal;font-variant:normal;font-weight:bold;font-stretch:normal;font-size:68.75px;line-height:64.99999762%;font-family:Ubuntu;-inkscape-font-specification:'Ubuntu Bold';letter-spacing:0.64999998px;fill:#ffffff;fill-opacity:1"
           id="path4182" /><path
           d="m 602.55752,534.34196 q 0,4.2625 -1.2375,7.8375 -1.2375,3.50625 -3.575,6.05 -2.3375,2.475 -5.6375,3.85 -3.23125,1.375 -7.2875,1.375 -3.9875,0 -7.2875,-1.375 -3.23125,-1.375 -5.56875,-3.85 -2.3375,-2.54375 -3.64375,-6.05 -1.30625,-3.575 -1.30625,-7.8375 0,-4.2625 1.30625,-7.76875 1.375,-3.50625 3.7125,-5.98125 2.40625,-2.475 5.6375,-3.85 3.3,-1.375 7.15,-1.375 3.91875,0 7.15,1.375 3.3,1.375 5.6375,3.85 2.3375,2.475 3.64375,5.98125 1.30625,3.50625 1.30625,7.76875 z m -10.45,0 q 0,-4.74375 -1.925,-7.425 -1.85625,-2.75 -5.3625,-2.75 -3.50625,0 -5.43125,2.75 -1.925,2.68125 -1.925,7.425 0,4.74375 1.925,7.5625 1.925,2.75 5.43125,2.75 3.50625,0 5.3625,-2.75 1.925,-2.81875 1.925,-7.5625 z"
           style="font-style:normal;font-variant:normal;font-weight:bold;font-stretch:normal;font-size:68.75px;line-height:64.99999762%;font-family:Ubuntu;-inkscape-font-specification:'Ubuntu Bold';letter-spacing:0.64999998px;fill:#ffffff;fill-opacity:1"
           id="path4184" /><path
           d="m 631.01153,533.31071 q 0,-4.95 -1.30625,-7.0125 -1.2375,-2.0625 -4.33125,-2.0625 -0.9625,0 -1.99375,0.1375 -1.03125,0.0688 -1.99375,0.20625 l 0,27.9125 -10.24375,0 0,-34.925 q 1.30625,-0.34375 3.025,-0.6875 1.7875,-0.4125 3.7125,-0.6875 1.99375,-0.34375 4.05625,-0.48125 2.0625,-0.20625 4.05625,-0.20625 3.91875,0 6.325,1.03125 2.475,0.9625 4.05625,2.3375 2.2,-1.58125 5.01875,-2.475 2.8875,-0.89375 5.29375,-0.89375 4.33125,0 7.08125,1.2375 2.81875,1.16875 4.46875,3.36875 1.65,2.2 2.26875,5.225 0.61875,3.025 0.61875,6.7375 l 0,20.41875 -10.24375,0 0,-19.18125 q 0,-4.95 -1.30625,-7.0125 -1.2375,-2.0625 -4.33125,-2.0625 -0.825,0 -2.3375,0.4125 -1.44375,0.4125 -2.40625,1.03125 0.48125,1.58125 0.61875,3.36875 0.1375,1.71875 0.1375,3.7125 l 0,19.73125 -10.24375,0 0,-19.18125 z"
           style="font-style:normal;font-variant:normal;font-weight:bold;font-stretch:normal;font-size:68.75px;line-height:64.99999762%;font-family:Ubuntu;-inkscape-font-specification:'Ubuntu Bold';letter-spacing:0.64999998px;fill:#ffffff;fill-opacity:1"
           id="path4186" /><path
           d="m 690.87783,533.31071 q 0,-4.95 -1.30625,-7.0125 -1.2375,-2.0625 -4.33125,-2.0625 -0.9625,0 -1.99375,0.1375 -1.03125,0.0688 -1.99375,0.20625 l 0,27.9125 -10.24375,0 0,-34.925 q 1.30625,-0.34375 3.025,-0.6875 1.7875,-0.4125 3.7125,-0.6875 1.99375,-0.34375 4.05625,-0.48125 2.0625,-0.20625 4.05625,-0.20625 3.91875,0 6.325,1.03125 2.475,0.9625 4.05625,2.3375 2.2,-1.58125 5.01875,-2.475 2.8875,-0.89375 5.29375,-0.89375 4.33125,0 7.08125,1.2375 2.81875,1.16875 4.46875,3.36875 1.65,2.2 2.26875,5.225 0.61875,3.025 0.61875,6.7375 l 0,20.41875 -10.24375,0 0,-19.18125 q 0,-4.95 -1.30625,-7.0125 -1.2375,-2.0625 -4.33125,-2.0625 -0.825,0 -2.3375,0.4125 -1.44375,0.4125 -2.40625,1.03125 0.48125,1.58125 0.61875,3.36875 0.1375,1.71875 0.1375,3.7125 l 0,19.73125 -10.24375,0 0,-19.18125 z"
           style="font-style:normal;font-variant:normal;font-weight:bold;font-stretch:normal;font-size:68.75px;line-height:64.99999762%;font-family:Ubuntu;-inkscape-font-specification:'Ubuntu Bold';letter-spacing:0.64999998px;fill:#ffffff;fill-opacity:1"
           id="path4188" /><path
           d="m 729.15665,534.68571 q 0,-4.8125 1.44375,-8.3875 1.5125,-3.64375 3.91875,-6.05 2.40625,-2.40625 5.5,-3.64375 3.1625,-1.2375 6.4625,-1.2375 7.7,0 12.16875,4.74375 4.46875,4.675 4.46875,13.81875 0,0.89375 -0.0688,1.99375 -0.0688,1.03125 -0.1375,1.85625 l -23.2375,0 q 0.34375,3.1625 2.95625,5.01875 2.6125,1.85625 7.0125,1.85625 2.81875,0 5.5,-0.48125 2.75,-0.55 4.46875,-1.30625 l 1.375,8.31875 q -0.825,0.4125 -2.2,0.825 -1.375,0.4125 -3.09375,0.6875 -1.65,0.34375 -3.575,0.55 -1.925,0.20625 -3.85,0.20625 -4.88125,0 -8.525,-1.44375 -3.575,-1.44375 -5.98125,-3.91875 -2.3375,-2.54375 -3.50625,-5.98125 -1.1,-3.4375 -1.1,-7.425 z m 24.0625,-3.91875 q -0.0688,-1.30625 -0.48125,-2.54375 -0.34375,-1.2375 -1.16875,-2.2 -0.75625,-0.9625 -1.99375,-1.58125 -1.16875,-0.61875 -2.95625,-0.61875 -1.71875,0 -2.95625,0.61875 -1.2375,0.55 -2.0625,1.5125 -0.825,0.9625 -1.30625,2.26875 -0.4125,1.2375 -0.61875,2.54375 l 13.54375,0 z"
           style="font-style:normal;font-variant:normal;font-weight:bold;font-stretch:normal;font-size:68.75px;line-height:64.99999762%;font-family:Ubuntu;-inkscape-font-specification:'Ubuntu Bold';letter-spacing:0.64999998px;fill:#ffffff;fill-opacity:1"
           id="path4190" /><path
           d="m 793.60234,525.40446 q -1.375,-0.34375 -3.23125,-0.6875 -1.85625,-0.4125 -3.9875,-0.4125 -0.9625,0 -2.3375,0.20625 -1.30625,0.1375 -1.99375,0.34375 l 0,27.6375 -10.24375,0 0,-34.2375 q 2.75,-0.9625 6.4625,-1.7875 3.78125,-0.89375 8.3875,-0.89375 0.825,0 1.99375,0.1375 1.16875,0.0688 2.3375,0.275 1.16875,0.1375 2.3375,0.4125 1.16875,0.20625 1.99375,0.55 l -1.71875,8.45625 z"
           style="font-style:normal;font-variant:normal;font-weight:bold;font-stretch:normal;font-size:68.75px;line-height:64.99999762%;font-family:Ubuntu;-inkscape-font-specification:'Ubuntu Bold';letter-spacing:0.64999998px;fill:#ffffff;fill-opacity:1"
           id="path4192" /><path
           d="m 799.07236,534.41071 q 0,-3.91875 1.2375,-7.35625 1.30625,-3.50625 3.7125,-6.05 2.40625,-2.6125 5.84375,-4.125 3.4375,-1.5125 7.8375,-1.5125 2.8875,0 5.29375,0.55 2.40625,0.48125 4.675,1.44375 l -2.13125,8.18125 q -1.44375,-0.55 -3.1625,-0.9625 -1.71875,-0.4125 -3.85,-0.4125 -4.5375,0 -6.80625,2.81875 -2.2,2.81875 -2.2,7.425 0,4.88125 2.0625,7.5625 2.13125,2.68125 7.35625,2.68125 1.85625,0 3.9875,-0.34375 2.13125,-0.34375 3.91875,-1.1 l 1.44375,8.3875 q -1.7875,0.75625 -4.46875,1.30625 -2.68125,0.55 -5.9125,0.55 -4.95,0 -8.525,-1.44375 -3.575,-1.5125 -5.9125,-4.05625 -2.26875,-2.54375 -3.36875,-5.98125 -1.03125,-3.50625 -1.03125,-7.5625 z"
           style="font-style:normal;font-variant:normal;font-weight:bold;font-stretch:normal;font-size:68.75px;line-height:64.99999762%;font-family:Ubuntu;-inkscape-font-specification:'Ubuntu Bold';letter-spacing:0.64999998px;fill:#ffffff;fill-opacity:1"
           id="path4194" /><path
           d="m 832.35175,534.68571 q 0,-4.8125 1.44375,-8.3875 1.5125,-3.64375 3.91875,-6.05 2.40625,-2.40625 5.5,-3.64375 3.1625,-1.2375 6.4625,-1.2375 7.7,0 12.16875,4.74375 4.46875,4.675 4.46875,13.81875 0,0.89375 -0.0688,1.99375 -0.0688,1.03125 -0.1375,1.85625 l -23.2375,0 q 0.34375,3.1625 2.95625,5.01875 2.6125,1.85625 7.0125,1.85625 2.81875,0 5.5,-0.48125 2.75,-0.55 4.46875,-1.30625 l 1.375,8.31875 q -0.825,0.4125 -2.2,0.825 -1.375,0.4125 -3.09375,0.6875 -1.65,0.34375 -3.575,0.55 -1.925,0.20625 -3.85,0.20625 -4.88125,0 -8.525,-1.44375 -3.575,-1.44375 -5.98125,-3.91875 -2.3375,-2.54375 -3.50625,-5.98125 -1.1,-3.4375 -1.1,-7.425 z m 24.0625,-3.91875 q -0.0688,-1.30625 -0.48125,-2.54375 -0.34375,-1.2375 -1.16875,-2.2 -0.75625,-0.9625 -1.99375,-1.58125 -1.16875,-0.61875 -2.95625,-0.61875 -1.71875,0 -2.95625,0.61875 -1.2375,0.55 -2.0625,1.5125 -0.825,0.9625 -1.30625,2.26875 -0.4125,1.2375 -0.61875,2.54375 l 13.54375,0 z"
           style="font-style:normal;font-variant:normal;font-weight:bold;font-stretch:normal;font-size:68.75px;line-height:64.99999762%;font-family:Ubuntu;-inkscape-font-specification:'Ubuntu Bold';letter-spacing:0.64999998px;fill:#ffffff;fill-opacity:1"
           id="path4196" /></g><path
         style="fill:#ffffff;fill-opacity:1"
         d="M 111.21875 0 A 111.21867 111.21867 0 0 0 0 111.21875 A 111.21867 111.21867 0 0 0 111.21875 222.4375 A 111.21867 111.21867 0 0 0 222.4375 111.21875 A 111.21867 111.21867 0 0 0 111.21875 0 z M 109.99609 41.625 C 124.5407 41.625 136.33008 53.412393 136.33008 67.957031 L 136.33008 67.978516 L 128.0625 67.978516 C 127.83459 58.157779 119.88009 50.244141 110.08008 50.244141 C 100.28007 50.244141 92.302124 58.157779 92.074219 67.978516 L 83.662109 67.978516 L 83.662109 67.957031 C 83.662109 53.412393 95.451459 41.625 109.99609 41.625 z M 34.517578 76.783203 L 69.076172 76.783203 L 84.677734 130.2793 L 101.00391 76.783203 L 186.42773 76.949219 L 160.2793 163.38867 L 146.77148 151.26758 L 146.77148 151.18555 C 144.86536 153.65109 142.42076 155.12109 139.74805 155.12109 C 133.73959 155.12109 128.87109 147.70459 128.87109 138.54688 C 128.87109 129.36843 133.73959 121.95117 139.74805 121.95117 C 142.44149 121.95117 144.90754 123.44346 146.79297 125.92969 L 162 112.29688 C 156.19876 106.39202 148.45096 102.78516 139.93555 102.78516 C 127.88651 102.78516 117.3827 109.99751 111.76758 120.70117 L 111.69531 120.45898 L 111.41211 121.38477 C 109.61132 124.9995 108.36126 128.99196 107.78711 133.22852 L 93.111328 181.16602 L 66.259766 181.16602 L 34.517578 76.783203 z M 159.05859 167.42383 L 154.85156 181.33203 L 129.76172 180.97852 L 126.86328 171.27148 C 130.86356 173.20606 135.28343 174.28711 139.93555 174.28711 C 147.08305 174.28711 153.69345 171.72817 159.05859 167.42383 z "
         transform="matrix(28.222221,0,0,28.222221,7581.0599,11546.047)"
         id="circle10" /></g></g></svg>